<svg viewBox="0 0 14 14" fill="none" xmlns="http://www.w3.org/2000/svg">
  <path
    d="M7.00016 0.333344C3.32016 0.333344 0.333496 3.32001 0.333496 7.00001C0.333496 10.68 3.32016 13.6667 7.00016 13.6667C10.6802 13.6667 13.6668 10.68 13.6668 7.00001C13.6668 3.32001 10.6802 0.333344 7.00016 0.333344ZM9.66683 7.66668H7.66683V9.66668C7.66683 10.0333 7.36683 10.3333 7.00016 10.3333C6.6335 10.3333 6.3335 10.0333 6.3335 9.66668V7.66668H4.3335C3.96683 7.66668 3.66683 7.36668 3.66683 7.00001C3.66683 6.63334 3.96683 6.33334 4.3335 6.33334H6.3335V4.33334C6.3335 3.96668 6.6335 3.66668 7.00016 3.66668C7.36683 3.66668 7.66683 3.96668 7.66683 4.33334V6.33334H9.66683C10.0335 6.33334 10.3335 6.63334 10.3335 7.00001C10.3335 7.36668 10.0335 7.66668 9.66683 7.66668Z"
    fill="currentColor" />
    
</svg>
